<?xml version="1.0" encoding="UTF-8" standalone="no"?>
<!-- Created with Inkscape (http://www.inkscape.org/) -->

<svg
   width="45.653145"
   height="44.041733"
   viewBox="0 0 12.079061 11.652708"
   version="1.1"
   id="svg1"
   inkscape:version="1.4 (e7c3feb100, 2024-10-09)"
   sodipodi:docname="mauromotion-icon.svg"
   xmlns:inkscape="http://www.inkscape.org/namespaces/inkscape"
   xmlns:sodipodi="http://sodipodi.sourceforge.net/DTD/sodipodi-0.dtd"
   xmlns="http://www.w3.org/2000/svg"
   xmlns:svg="http://www.w3.org/2000/svg">
  <sodipodi:namedview
     id="namedview1"
     pagecolor="#505050"
     bordercolor="#eeeeee"
     borderopacity="1"
     inkscape:showpageshadow="0"
     inkscape:pageopacity="0"
     inkscape:pagecheckerboard="0"
     inkscape:deskcolor="#505050"
     inkscape:document-units="mm"
     showgrid="true"
     inkscape:zoom="12.225646"
     inkscape:cx="31.532076"
     inkscape:cy="23.720628"
     inkscape:window-width="2560"
     inkscape:window-height="1418"
     inkscape:window-x="0"
     inkscape:window-y="582"
     inkscape:window-maximized="1"
     inkscape:current-layer="layer1">
    <inkscape:grid
       id="grid1"
       units="mm"
       originx="-0.31046952"
       originy="-0.52364557"
       spacingx="1"
       spacingy="1"
       empcolor="#0099e5"
       empopacity="0.30196078"
       color="#0099e5"
       opacity="0.14901961"
       empspacing="5"
       dotted="false"
       gridanglex="30"
       gridanglez="30"
       visible="true" />
  </sodipodi:namedview>
  <defs
     id="defs1" />
  <g
     inkscape:label="Layer 1"
     inkscape:groupmode="layer"
     id="layer1"
     transform="translate(-0.31046952,-0.52364559)">
    <g
       id="g4"
       transform="matrix(1.3328625,0,0,1.3328625,0.31046953,-4.7509994)">
      <path
         d="m 6.0270223,10.013859 a 3.0285945,3.0285945 0 0 1 -3.021521,-3.0282389 3.0285945,3.0285945 0 0 1 0.029972,-0.3426147 3.0285945,3.0285945 0 0 0 -0.00672,0 A 3.0285945,3.0285945 0 0 0 0,9.6712443 3.0285945,3.0285945 0 0 0 3.0287557,12.7 3.0285945,3.0285945 0 0 0 6.0270223,10.013859 Z"
         style="fill:#e66937;stroke-width:0.0399176"
         id="path3" />
      <path
         d="m 6.0337402,3.9573812 a 3.0285945,3.0285945 0 0 0 -2.9982666,2.6856242 3.0285945,3.0285945 0 0 1 3.021521,3.0282389 3.0285945,3.0285945 0 0 1 -0.029972,0.3426147 3.0285945,3.0285945 0 0 0 0.00672,5.17e-4 A 3.0285945,3.0285945 0 0 0 9.0624959,6.9856201 3.0285945,3.0285945 0 0 0 6.0337402,3.9573812 Z"
         style="fill:#9dceca;stroke-width:0.0399176"
         id="path2" />
    </g>
  </g>
</svg>
